<svg id="Group_6" data-name="Group 6" xmlns="http://www.w3.org/2000/svg" width="30.083" height="29.34" viewBox="0 0 30.083 29.34">
  <path id="Path_1" data-name="Path 1" d="M305.262,58.431a15.043,15.043,0,0,0-4.755,29.314c.752.139,1.028-.327,1.028-.724,0-.358-.014-1.544-.02-2.8-4.185.91-5.068-1.775-5.068-1.775a3.984,3.984,0,0,0-1.67-2.2c-1.365-.934.1-.914.1-.914a3.162,3.162,0,0,1,2.306,1.55,3.2,3.2,0,0,0,4.377,1.25,3.2,3.2,0,0,1,.955-2.012c-3.341-.38-6.853-1.67-6.853-7.434a5.821,5.821,0,0,1,1.55-4.037,5.405,5.405,0,0,1,.146-3.981s1.263-.4,4.138,1.542a14.261,14.261,0,0,1,7.533,0c2.871-1.946,4.132-1.542,4.132-1.542a5.4,5.4,0,0,1,.147,3.981,5.809,5.809,0,0,1,1.548,4.037c0,5.777-3.519,7.049-6.868,7.422a3.6,3.6,0,0,1,1.02,2.785c0,2.013-.017,3.632-.017,4.128,0,.4.271.87,1.033.722a15.044,15.044,0,0,0-4.764-29.312Z" transform="translate(-290.221 -58.431)" fill="#fff" fill-rule="evenodd"/>
  <path id="Path_2" data-name="Path 2" d="M311.879,144.366c-.033.075-.151.1-.258.046s-.17-.151-.135-.226.15-.1.259-.047.172.152.134.227Zm-.185-.137" transform="translate(-306.182 -122.77)" fill="#fff"/>
  <path id="Path_3" data-name="Path 3" d="M314.347,146.606c-.072.066-.212.035-.307-.07a.23.23,0,0,1-.044-.313c.074-.066.21-.035.309.069s.118.245.043.313Zm-.143-.154" transform="translate(-308.041 -124.33)" fill="#fff"/>
  <path id="Path_4" data-name="Path 4" d="M316.7,149.789c-.092.064-.243,0-.336-.13s-.092-.294,0-.359.242-.006.336.126.092.3,0,.362Zm0,0" transform="translate(-309.8 -126.648)" fill="#fff"/>
  <path id="Path_5" data-name="Path 5" d="M319.626,153.2c-.082.091-.258.066-.387-.058a.289.289,0,0,1-.085-.384c.083-.091.26-.065.39.058s.17.294.082.384Zm0,0" transform="translate(-311.914 -129.225)" fill="#fff"/>
  <path id="Path_6" data-name="Path 6" d="M323.785,155.661c-.036.118-.206.171-.376.121s-.281-.19-.247-.308.205-.174.377-.121.281.188.246.308Zm0,0" transform="translate(-314.953 -131.197)" fill="#fff"/>
  <path id="Path_7" data-name="Path 7" d="M328.675,156.351c0,.124-.14.227-.319.229s-.325-.1-.327-.218.141-.227.321-.23.325.1.325.219Zm0,0" transform="translate(-318.612 -131.796)" fill="#fff"/>
  <path id="Path_8" data-name="Path 8" d="M333.29,155.713c.021.121-.1.245-.281.278s-.336-.043-.358-.163.1-.248.279-.28.337.042.36.165Zm0,0" transform="translate(-322.08 -131.352)" fill="#fff"/>
</svg>
